<?xml version="1.0" encoding="UTF-8"?> <svg xmlns="http://www.w3.org/2000/svg" width="24" height="24" viewBox="0 0 24 24" fill="none"> <path fill-rule="evenodd" clip-rule="evenodd" d="M16.7352 3.25C18.4037 3.25 19.9499 4.12542 20.8083 5.55615L22.6431 8.61413C22.8017 8.87847 22.7824 9.21294 22.5945 9.45728L15.765 18.3356C13.8636 20.8075 10.1364 20.8075 8.23504 18.3356L1.40553 9.45728C1.21758 9.21294 1.19828 8.87847 1.35688 8.61413L3.19167 5.55615C4.05011 4.12542 5.59626 3.25 7.26476 3.25H16.7352ZM4.47791 6.32789C5.06526 5.34897 6.12316 4.75 7.26476 4.75H7.7866C7.78318 4.7567 7.77979 4.76342 7.77642 4.77016L5.9406 8.44181L5.93852 8.44599L3.28661 8.31339L4.47791 6.32789ZM6.11345 9.95661L3.58483 9.83018L9.42397 17.4211C9.499 17.5186 9.57818 17.6105 9.66103 17.6968L6.11345 9.95661ZM14.3391 17.6967C14.4219 17.6104 14.501 17.5186 14.576 17.4211L20.4152 9.83018L17.8866 9.95661L14.3391 17.6967ZM16.1979 10.041L12.4091 18.3074C12.2487 18.6574 11.7514 18.6574 11.5909 18.3074L7.8022 10.041L11.9625 10.2491C11.9875 10.2503 12.0125 10.2503 12.0375 10.2491L16.1979 10.041ZM16.5018 8.52397L12 8.74906L7.57466 8.5278L9.11806 5.44098C9.3298 5.0175 9.76263 4.75 10.2361 4.75H14.146C14.6571 4.75 15.1167 5.06119 15.3066 5.53576L16.5018 8.52397ZM18.0857 8.44478L20.7134 8.31339L19.5221 6.32789C18.9347 5.34897 17.8768 4.75 16.7352 4.75H16.5955C16.6333 4.82411 16.668 4.90038 16.6993 4.97868L18.0857 8.44478Z" fill="#363538"></path> </svg> 